<svg width="17" height="20" viewBox="0 0 17 20" fill="none" xmlns="http://www.w3.org/2000/svg">
<g clip-path="url(#clip0_1_109)">
<path d="M8.50379 5.50781C6.0904 5.50781 4.14375 7.51172 4.14375 9.99609C4.14375 12.4805 6.0904 14.4844 8.50379 14.4844C10.9172 14.4844 12.8638 12.4805 12.8638 9.99609C12.8638 7.51172 10.9172 5.50781 8.50379 5.50781ZM8.50379 12.9141C6.9442 12.9141 5.6692 11.6055 5.6692 9.99609C5.6692 8.38672 6.9404 7.07812 8.50379 7.07812C10.0672 7.07812 11.3384 8.38672 11.3384 9.99609C11.3384 11.6055 10.0634 12.9141 8.50379 12.9141ZM14.0592 5.32422C14.0592 5.90625 13.6038 6.37109 13.0422 6.37109C12.4768 6.37109 12.0252 5.90234 12.0252 5.32422C12.0252 4.74609 12.4806 4.27734 13.0422 4.27734C13.6038 4.27734 14.0592 4.74609 14.0592 5.32422ZM16.9469 6.38672C16.8824 4.98438 16.5712 3.74219 15.5732 2.71875C14.579 1.69531 13.3723 1.375 12.01 1.30469C10.606 1.22266 6.39777 1.22266 4.99375 1.30469C3.63527 1.37109 2.42857 1.69141 1.43058 2.71484C0.43259 3.73828 0.125223 4.98047 0.0569199 6.38281C-0.0227676 7.82812 -0.0227676 12.1602 0.0569199 13.6055C0.121429 15.0078 0.43259 16.25 1.43058 17.2734C2.42857 18.2969 3.63147 18.6172 4.99375 18.6875C6.39777 18.7695 10.606 18.7695 12.01 18.6875C13.3723 18.6211 14.579 18.3008 15.5732 17.2734C16.5674 16.25 16.8786 15.0078 16.9469 13.6055C17.0266 12.1602 17.0266 7.83203 16.9469 6.38672ZM15.133 15.1562C14.8371 15.9219 14.2641 16.5117 13.5165 16.8203C12.3971 17.2773 9.74085 17.1719 8.50379 17.1719C7.26674 17.1719 4.6067 17.2734 3.49107 16.8203C2.74732 16.5156 2.17433 15.9258 1.87455 15.1562C1.43058 14.0039 1.53304 11.2695 1.53304 9.99609C1.53304 8.72266 1.43438 5.98438 1.87455 4.83594C2.17054 4.07031 2.74353 3.48047 3.49107 3.17187C4.61049 2.71484 7.26674 2.82031 8.50379 2.82031C9.74085 2.82031 12.4009 2.71875 13.5165 3.17187C14.2603 3.47656 14.8333 4.06641 15.133 4.83594C15.577 5.98828 15.4746 8.72266 15.4746 9.99609C15.4746 11.2695 15.577 14.0078 15.133 15.1562Z" fill="black"/>
</g>
<defs>
<clipPath id="clip0_1_109">
<rect width="17" height="20" fill="white"/>
</clipPath>
</defs>
</svg>
