<svg width="18" height="17" viewBox="0 0 18 17" fill="none" xmlns="http://www.w3.org/2000/svg">
<g clip-path="url(#clip0_1_113)">
<path d="M0 1.97487C0 1.40247 0.202708 0.930244 0.608108 0.558202C1.01351 0.186143 1.54055 0.00012207 2.18919 0.00012207C2.82626 0.00012207 3.34169 0.183275 3.73552 0.549616C4.14092 0.927393 4.34363 1.41964 4.34363 2.02638C4.34363 2.57588 4.14672 3.03378 3.7529 3.40012C3.3475 3.77789 2.81467 3.96678 2.15444 3.96678H2.13707C1.49999 3.96678 0.984562 3.77789 0.590734 3.40012C0.196905 3.02234 0 2.54725 0 1.97487ZM0.225869 17.0001V5.52941H4.08301V17.0001H0.225869ZM6.22008 17.0001H10.0772V10.5951C10.0772 10.1944 10.1236 9.88528 10.2162 9.66778C10.3784 9.27855 10.6245 8.94942 10.9546 8.68041C11.2847 8.41138 11.6988 8.27688 12.1969 8.27688C13.4942 8.27688 14.1429 9.14118 14.1429 10.8698V17.0001H18V10.4233C18 8.72906 17.5946 7.44405 16.7838 6.56829C15.973 5.69254 14.9016 5.25466 13.5695 5.25466C12.0753 5.25466 10.9112 5.89001 10.0772 7.16072V7.19506H10.0598L10.0772 7.16072V5.52941H6.22008C6.24324 5.89573 6.25483 7.03478 6.25483 8.94657C6.25483 10.8583 6.24324 13.5428 6.22008 17.0001Z" fill="black"/>
</g>
<defs>
<clipPath id="clip0_1_113">
<rect width="18" height="17" fill="white"/>
</clipPath>
</defs>
</svg>
