<svg width="133" height="35" viewBox="0 0 133 35" fill="none" xmlns="http://www.w3.org/2000/svg">
<g filter="url(#filter0_d_1_44)">
<path d="M12.67 26.24C11.21 26.24 9.91 25.99 8.77 25.49C7.63 24.99 6.73 24.31 6.07 23.45C5.41 22.57 5.04 21.59 4.96 20.51H10.03C10.09 21.09 10.36 21.56 10.84 21.92C11.32 22.28 11.91 22.46 12.61 22.46C13.25 22.46 13.74 22.34 14.08 22.1C14.44 21.84 14.62 21.51 14.62 21.11C14.62 20.63 14.37 20.28 13.87 20.06C13.37 19.82 12.56 19.56 11.44 19.28C10.24 19 9.24 18.71 8.44 18.41C7.64 18.09 6.95 17.6 6.37 16.94C5.79 16.26 5.5 15.35 5.5 14.21C5.5 13.25 5.76 12.38 6.28 11.6C6.82 10.8 7.6 10.17 8.62 9.71C9.66 9.25 10.89 9.02 12.31 9.02C14.41 9.02 16.06 9.54 17.26 10.58C18.48 11.62 19.18 13 19.36 14.72H14.62C14.54 14.14 14.28 13.68 13.84 13.34C13.42 13 12.86 12.83 12.16 12.83C11.56 12.83 11.1 12.95 10.78 13.19C10.46 13.41 10.3 13.72 10.3 14.12C10.3 14.6 10.55 14.96 11.05 15.2C11.57 15.44 12.37 15.68 13.45 15.92C14.69 16.24 15.7 16.56 16.48 16.88C17.26 17.18 17.94 17.68 18.52 18.38C19.12 19.06 19.43 19.98 19.45 21.14C19.45 22.12 19.17 23 18.61 23.78C18.07 24.54 17.28 25.14 16.24 25.58C15.22 26.02 14.03 26.24 12.67 26.24ZM21.5685 17.6C21.5685 15.88 21.8885 14.37 22.5285 13.07C23.1885 11.77 24.0785 10.77 25.1985 10.07C26.3185 9.37 27.5685 9.02 28.9485 9.02C30.1285 9.02 31.1585 9.26 32.0385 9.74C32.9385 10.22 33.6285 10.85 34.1085 11.63V9.26H39.2385V26H34.1085V23.63C33.6085 24.41 32.9085 25.04 32.0085 25.52C31.1285 26 30.0985 26.24 28.9185 26.24C27.5585 26.24 26.3185 25.89 25.1985 25.19C24.0785 24.47 23.1885 23.46 22.5285 22.16C21.8885 20.84 21.5685 19.32 21.5685 17.6ZM34.1085 17.63C34.1085 16.35 33.7485 15.34 33.0285 14.6C32.3285 13.86 31.4685 13.49 30.4485 13.49C29.4285 13.49 28.5585 13.86 27.8385 14.6C27.1385 15.32 26.7885 16.32 26.7885 17.6C26.7885 18.88 27.1385 19.9 27.8385 20.66C28.5585 21.4 29.4285 21.77 30.4485 21.77C31.4685 21.77 32.3285 21.4 33.0285 20.66C33.7485 19.92 34.1085 18.91 34.1085 17.63ZM50.4798 21.2L54.1098 9.26H59.5698L53.6298 26H47.2998L41.3598 9.26H46.8498L50.4798 21.2ZM69.3491 26.24C67.7091 26.24 66.2291 25.89 64.9091 25.19C63.6091 24.49 62.5791 23.49 61.8191 22.19C61.0791 20.89 60.7091 19.37 60.7091 17.63C60.7091 15.91 61.0891 14.4 61.8491 13.1C62.6091 11.78 63.6491 10.77 64.9691 10.07C66.2891 9.37 67.7691 9.02 69.4091 9.02C71.0491 9.02 72.5291 9.37 73.8491 10.07C75.1691 10.77 76.2091 11.78 76.9691 13.1C77.7291 14.4 78.1091 15.91 78.1091 17.63C78.1091 19.35 77.7191 20.87 76.9391 22.19C76.1791 23.49 75.1291 24.49 73.7891 25.19C72.4691 25.89 70.9891 26.24 69.3491 26.24ZM69.3491 21.8C70.3291 21.8 71.1591 21.44 71.8391 20.72C72.5391 20 72.8891 18.97 72.8891 17.63C72.8891 16.29 72.5491 15.26 71.8691 14.54C71.2091 13.82 70.3891 13.46 69.4091 13.46C68.4091 13.46 67.5791 13.82 66.9191 14.54C66.2591 15.24 65.9291 16.27 65.9291 17.63C65.9291 18.97 66.2491 20 66.8891 20.72C67.5491 21.44 68.3691 21.8 69.3491 21.8ZM85.9607 12.05C86.5607 11.13 87.3107 10.41 88.2107 9.89C89.1107 9.35 90.1107 9.08 91.2107 9.08V14.51H89.8007C88.5207 14.51 87.5607 14.79 86.9207 15.35C86.2807 15.89 85.9607 16.85 85.9607 18.23V26H80.8307V9.26H85.9607V12.05ZM96.2427 7.52C95.3427 7.52 94.6027 7.26 94.0227 6.74C93.4627 6.2 93.1827 5.54 93.1827 4.76C93.1827 3.96 93.4627 3.3 94.0227 2.78C94.6027 2.24 95.3427 1.97 96.2427 1.97C97.1227 1.97 97.8427 2.24 98.4027 2.78C98.9827 3.3 99.2727 3.96 99.2727 4.76C99.2727 5.54 98.9827 6.2 98.4027 6.74C97.8427 7.26 97.1227 7.52 96.2427 7.52ZM98.7927 9.26V26H93.6627V9.26H98.7927ZM109.32 26.24C107.86 26.24 106.56 25.99 105.42 25.49C104.28 24.99 103.38 24.31 102.72 23.45C102.06 22.57 101.69 21.59 101.61 20.51H106.68C106.74 21.09 107.01 21.56 107.49 21.92C107.97 22.28 108.56 22.46 109.26 22.46C109.9 22.46 110.39 22.34 110.73 22.1C111.09 21.84 111.27 21.51 111.27 21.11C111.27 20.63 111.02 20.28 110.52 20.06C110.02 19.82 109.21 19.56 108.09 19.28C106.89 19 105.89 18.71 105.09 18.41C104.29 18.09 103.6 17.6 103.02 16.94C102.44 16.26 102.15 15.35 102.15 14.21C102.15 13.25 102.41 12.38 102.93 11.6C103.47 10.8 104.25 10.17 105.27 9.71C106.31 9.25 107.54 9.02 108.96 9.02C111.06 9.02 112.71 9.54 113.91 10.58C115.13 11.62 115.83 13 116.01 14.72H111.27C111.19 14.14 110.93 13.68 110.49 13.34C110.07 13 109.51 12.83 108.81 12.83C108.21 12.83 107.75 12.95 107.43 13.19C107.11 13.41 106.95 13.72 106.95 14.12C106.95 14.6 107.2 14.96 107.7 15.2C108.22 15.44 109.02 15.68 110.1 15.92C111.34 16.24 112.35 16.56 113.13 16.88C113.91 17.18 114.59 17.68 115.17 18.38C115.77 19.06 116.08 19.98 116.1 21.14C116.1 22.12 115.82 23 115.26 23.78C114.72 24.54 113.93 25.14 112.89 25.58C111.87 26.02 110.68 26.24 109.32 26.24ZM128.569 21.65V26H125.959C124.099 26 122.649 25.55 121.609 24.65C120.569 23.73 120.049 22.24 120.049 20.18V13.52H118.009V9.26H120.049V5.18H125.179V9.26H128.539V13.52H125.179V20.24C125.179 20.74 125.299 21.1 125.539 21.32C125.779 21.54 126.179 21.65 126.739 21.65H128.569Z" fill="black"/>
</g>
<defs>
<filter id="filter0_d_1_44" x="0" y="0" width="137" height="39" filterUnits="userSpaceOnUse" color-interpolation-filters="sRGB">
<feFlood flood-opacity="0" result="BackgroundImageFix"/>
<feColorMatrix in="SourceAlpha" type="matrix" values="0 0 0 0 0 0 0 0 0 0 0 0 0 0 0 0 0 0 127 0" result="hardAlpha"/>
<feOffset dy="4"/>
<feGaussianBlur stdDeviation="2"/>
<feComposite in2="hardAlpha" operator="out"/>
<feColorMatrix type="matrix" values="0 0 0 0 0 0 0 0 0 0 0 0 0 0 0 0 0 0 0.25 0"/>
<feBlend mode="normal" in2="BackgroundImageFix" result="effect1_dropShadow_1_44"/>
<feBlend mode="normal" in="SourceGraphic" in2="effect1_dropShadow_1_44" result="shape"/>
</filter>
</defs>
</svg>
