<svg width="15" height="17" viewBox="0 0 15 17" fill="none" xmlns="http://www.w3.org/2000/svg">
<g clip-path="url(#clip0_1_115)">
<path d="M15 6.96967C13.5259 6.97316 12.088 6.51729 10.8894 5.66645V11.6005C10.889 12.6996 10.5502 13.7723 9.91844 14.6753C9.28664 15.5783 8.39191 16.2684 7.35388 16.6535C6.31585 17.0386 5.18401 17.1003 4.10969 16.8303C3.03537 16.5602 2.06979 15.9714 1.34205 15.1425C0.614318 14.3135 0.159118 13.2841 0.0373194 12.1917C-0.0844791 11.0993 0.13293 9.99603 0.660476 9.02947C1.18802 8.06292 2.00056 7.27911 2.98944 6.78286C3.97832 6.28661 5.09641 6.10157 6.1942 6.25248V9.23711C5.69185 9.08041 5.15241 9.08513 4.65293 9.2506C4.15344 9.41606 3.71945 9.7338 3.41293 10.1585C3.10641 10.5831 2.94304 11.0929 2.94614 11.6152C2.94924 12.1374 3.11866 12.6453 3.4302 13.0663C3.74175 13.4873 4.17948 13.8 4.6809 13.9596C5.18231 14.1192 5.72176 14.1177 6.22222 13.9551C6.72267 13.7925 7.15854 13.4773 7.46757 13.0545C7.77659 12.6316 7.94298 12.1227 7.94297 11.6005V0H10.8894C10.8874 0.246746 10.9082 0.493155 10.9517 0.736113C11.0541 1.27848 11.2669 1.79443 11.5773 2.25241C11.8877 2.71039 12.289 3.10077 12.7567 3.39967C13.4221 3.83599 14.2023 4.06855 15 4.06838V6.96967Z" fill="black"/>
</g>
<defs>
<clipPath id="clip0_1_115">
<rect width="15" height="17" fill="white"/>
</clipPath>
</defs>
</svg>
