<svg width="17" height="16" viewBox="0 0 17 16" fill="none" xmlns="http://www.w3.org/2000/svg">
<g clip-path="url(#clip0_1_111)">
<path d="M16.8878 2.54584C16.269 2.83384 15.6026 3.02584 14.9056 3.11473C15.6196 2.66673 16.1636 1.95917 16.422 1.12006C15.7556 1.52895 15.0178 1.83117 14.2324 1.99117C13.6034 1.29073 12.7058 0.853394 11.713 0.853394C9.8056 0.853394 8.262 2.46762 8.262 4.46228C8.262 4.74673 8.2926 5.02051 8.3504 5.28362C5.4842 5.13428 2.941 3.69784 1.2376 1.51473C0.941801 2.04806 0.771801 2.66673 0.771801 3.32806C0.771801 4.57962 1.3804 5.68539 2.3052 6.33251C1.7408 6.31473 1.207 6.15117 0.741201 5.88095C0.741201 5.89517 0.741201 5.90939 0.741201 5.92717C0.741201 7.67651 1.9312 9.13428 3.5088 9.46495C3.2198 9.54673 2.9138 9.59295 2.601 9.59295C2.38 9.59295 2.1624 9.57162 1.9516 9.52895C2.3902 10.9618 3.6652 12.0072 5.1748 12.0356C3.995 13.0027 2.5058 13.5787 0.890801 13.5787C0.612001 13.5787 0.336601 13.561 0.0680008 13.529C1.5946 14.553 3.4102 15.1503 5.3584 15.1503C11.7062 15.1503 15.1776 9.65339 15.1776 4.88184C15.1776 4.72539 15.1742 4.56895 15.1674 4.41606C15.8406 3.90406 16.4254 3.26762 16.8878 2.54584Z" fill="black"/>
</g>
<defs>
<clipPath id="clip0_1_111">
<rect width="17" height="16" fill="white"/>
</clipPath>
</defs>
</svg>
